<svg width="394" height="351" viewBox="0 0 394 351" fill="none" xmlns="http://www.w3.org/2000/svg">
<g filter="url(#filter0_d_587_218)">
<path fill-rule="evenodd" clip-rule="evenodd" d="M52.4074 0C26.225 0 5 21.2251 5 47.4074V293.926C5 320.108 26.225 341.333 52.4074 341.333H92.0884C91.7154 339.69 91.5185 337.979 91.5185 336.222V325.222C91.5185 312.52 101.816 302.222 114.519 302.222H278.518C291.221 302.222 301.518 312.52 301.518 325.222V336.222C301.518 337.979 301.322 339.69 300.949 341.333H341.593C367.775 341.333 389 320.108 389 293.926V47.4074C389 21.225 367.775 0 341.593 0H52.4074Z" fill="white"/>
</g>
<defs>
<filter id="filter0_d_587_218" x="0.259259" y="0" width="393.481" height="350.815" filterUnits="userSpaceOnUse" color-interpolation-filters="sRGB">
<feFlood flood-opacity="0" result="BackgroundImageFix"/>
<feColorMatrix in="SourceAlpha" type="matrix" values="0 0 0 0 0 0 0 0 0 0 0 0 0 0 0 0 0 0 127 0" result="hardAlpha"/>
<feOffset dy="4.74074"/>
<feGaussianBlur stdDeviation="2.37037"/>
<feComposite in2="hardAlpha" operator="out"/>
<feColorMatrix type="matrix" values="0 0 0 0 0 0 0 0 0 0 0 0 0 0 0 0 0 0 0.25 0"/>
<feBlend mode="normal" in2="BackgroundImageFix" result="effect1_dropShadow_587_218"/>
<feBlend mode="normal" in="SourceGraphic" in2="effect1_dropShadow_587_218" result="shape"/>
</filter>
</defs>
</svg>
